<?xml version="1.0" encoding="utf-8"?>
<!-- Generator: Adobe Illustrator 16.0.0, SVG Export Plug-In . SVG Version: 6.00 Build 0)  -->
<!DOCTYPE svg PUBLIC "-//W3C//DTD SVG 1.1//EN" "http://www.w3.org/Graphics/SVG/1.1/DTD/svg11.dtd">
<svg version="1.1" id="Layer_1" xmlns="http://www.w3.org/2000/svg" xmlns:xlink="http://www.w3.org/1999/xlink" x="0px" y="0px"
	   viewBox="0 0 1000 1000" enable-background="new 0 0 1000 1000" xml:space="preserve">
<g>
	<path fill="#95BF47" d="M220.069,412.748c-0.162-1.453-1.453-2.099-2.422-2.26c-0.968-0.162-20.341-0.323-20.341-0.323
		s-16.305-15.821-17.92-17.436c-1.614-1.614-4.681-1.13-5.973-0.807c0,0-3.067,0.969-8.233,2.583
		c-0.807-2.744-2.099-6.135-3.875-9.524c-5.812-11.139-14.207-16.951-24.539-16.951c-0.646,0-1.453,0-2.099,0.162
		c-0.322-0.323-0.646-0.646-0.969-1.13c-4.52-4.843-10.17-7.103-16.95-6.941c-13.238,0.323-26.315,9.847-37.131,26.96
		c-7.588,11.946-13.238,26.959-14.852,38.583c-15.175,4.682-25.83,7.91-25.991,8.072c-7.588,2.421-7.911,2.583-8.879,9.847
		C29.089,448.909,9.071,604.05,9.071,604.05l168.056,29.06l72.808-18.082C249.934,615.027,220.23,414.039,220.069,412.748z
		 M156.786,397.088c-3.875,1.13-8.233,2.583-13.077,4.036c-0.161-6.619-0.969-15.982-4.036-24.054
		C149.843,379.007,154.687,390.308,156.786,397.088z M134.992,403.868c-8.879,2.745-18.404,5.65-28.09,8.718
		c2.745-10.332,7.911-20.664,14.207-27.444c2.421-2.583,5.65-5.328,9.525-6.942C134.346,385.788,134.992,396.604,134.992,403.868z
		 M116.911,368.999c3.067,0,5.65,0.646,7.911,2.098c-3.552,1.776-7.104,4.521-10.332,8.072
		c-8.395,9.041-14.853,22.924-17.436,36.485c-8.072,2.422-15.821,4.843-23.085,7.103C78.812,401.447,96.569,369.644,116.911,368.999
		z"/>
	<path fill="#5E8E3E" d="M217.647,410.487c-0.968-0.162-20.341-0.323-20.341-0.323s-16.305-15.821-17.92-17.436
		c-0.646-0.646-1.453-0.968-2.26-0.968v241.349l72.808-18.082c0,0-29.704-200.827-29.865-202.28
		C219.746,411.294,218.616,410.649,217.647,410.487z"/>
	<path fill="#FFFFFF" d="M136.767,447.941l-8.395,31.641c0,0-9.363-4.358-20.664-3.551c-16.467,0.968-16.628,11.3-16.467,14.045
		c0.969,14.206,38.099,17.273,40.198,50.368c1.614,26.152-13.884,43.91-36.162,45.363c-26.799,1.614-41.49-14.045-41.49-14.045
		l5.651-24.054c0,0,14.852,11.139,26.637,10.493c7.749-0.484,10.493-6.78,10.17-11.301c-1.13-18.403-31.48-17.436-33.417-47.623
		c-1.614-25.508,15.175-51.337,52.144-53.76C129.502,444.228,136.767,447.941,136.767,447.941L136.767,447.941z"/>
	<g>
		<path d="M348.573,515.422c-8.395-4.521-12.754-8.396-12.754-13.723c0-6.781,5.974-11.139,15.499-11.139
			c10.977,0,20.664,4.521,20.664,4.521l7.749-23.57c0,0-7.104-5.488-27.929-5.488c-29.059,0-49.238,16.627-49.238,40.036
			c0,13.238,9.363,23.408,21.955,30.673c10.17,5.812,13.722,9.848,13.722,15.982c0,6.296-5.004,11.301-14.529,11.301
			c-14.045,0-27.283-7.265-27.283-7.265l-8.233,23.57c0,0,12.27,8.232,32.772,8.232c29.865,0,51.336-14.69,51.336-41.166
			C372.465,533.019,361.649,522.848,348.573,515.422L348.573,515.422z M467.712,465.699c-14.69,0-26.313,6.942-35.193,17.597
			l-0.484-0.162l12.753-66.834h-33.255l-32.287,169.992h33.255l11.139-58.116c4.359-21.955,15.66-35.517,26.314-35.517
			c7.426,0,10.332,5.005,10.332,12.27c0,4.521-0.484,10.171-1.453,14.691l-12.592,66.512h33.256l13.076-68.772
			c1.453-7.265,2.421-15.982,2.421-21.633C494.995,477.161,484.986,465.699,467.712,465.699L467.712,465.699z M570.225,465.699
			c-40.037,0-66.512,36.162-66.512,76.521c0,25.83,15.982,46.494,45.848,46.494c39.23,0,65.865-35.193,65.865-76.521
			C615.266,488.461,601.221,465.699,570.225,465.699L570.225,465.699z M553.758,563.206c-11.301,0-16.145-9.686-16.145-21.632
			c0-19.05,9.85-50.207,27.93-50.207c11.785,0,15.66,10.17,15.66,20.018C581.203,531.888,571.354,563.206,553.758,563.206z
			 M700.344,465.699c-22.441,0-35.193,19.695-35.193,19.695h-0.484l1.938-17.918h-29.383c-1.451,12.107-4.035,30.35-6.779,44.072
			l-23.086,121.724h33.256l9.201-49.238h0.646c0,0,6.781,4.358,19.533,4.358c39.068,0,64.574-40.036,64.574-80.557
			C734.729,485.717,724.721,465.699,700.344,465.699L700.344,465.699z M668.539,563.691c-8.717,0-13.721-4.844-13.721-4.844
			l5.488-31.157c3.875-20.664,14.691-34.547,26.314-34.547c10.17,0,13.238,9.362,13.238,18.403
			C699.859,533.019,687.105,563.691,668.539,563.691z M782.191,418.075c-10.654,0-19.049,8.395-19.049,19.372
			c0,9.848,6.295,16.629,15.658,16.629h0.484c10.332,0,19.373-6.942,19.535-19.373C798.82,425.017,792.361,418.075,782.191,418.075
			L782.191,418.075z M735.697,586.291h33.256l22.602-117.848h-33.58L735.697,586.291z M876.148,468.12h-23.086l1.129-5.489
			c1.938-11.301,8.719-21.471,19.697-21.471c5.973,0,10.652,1.614,10.652,1.614L891,416.784c0,0-5.813-2.906-18.082-2.906
			c-11.785,0-23.568,3.39-32.609,11.139c-11.301,9.686-16.627,23.569-19.373,37.615l-0.969,5.489h-15.498l-4.842,25.023h15.498
			l-17.598,93.147h33.256l17.598-93.147h22.924L876.148,468.12z M956.221,468.443c0,0-20.826,52.467-30.189,81.041h-0.484
			c-0.645-9.201-8.232-81.041-8.232-81.041h-34.871l20.018,108.325c0.484,2.421,0.162,3.874-0.645,5.488
			c-3.875,7.426-10.332,14.69-18.082,20.019c-6.295,4.52-13.236,7.426-18.887,9.363l9.201,28.251
			c6.781-1.453,20.664-6.941,32.609-18.081c15.176-14.206,29.221-36.161,43.59-66.027l40.682-87.337H956.221z"/>
	</g>
</g>
</svg>
